<svg xmlns="http://www.w3.org/2000/svg" viewBox="0 0 269.79 119.8"><defs><style>.cls-1{fill:#4ad891;}.cls-2{fill:#fff;}.cls-3{font-size:22px;fill:#d3d3d3;font-family:Oswald-Bold, Oswald;font-weight:700;}.cls-4{letter-spacing:-0.06em;}.cls-5{letter-spacing:-0.01em;}</style></defs><title>Recurso 1</title><g id="Capa_2" data-name="Capa 2"><g id="Ñëîé_1" data-name="Ñëîé 1"><path class="cls-1" d="M54,119.8h-.28c-5.72,0-10.72-7.12-15.3-21.66a212.71,212.71,0,0,1-7.86-40.62A2.44,2.44,0,1,1,35.44,57,207.05,207.05,0,0,0,43.1,96.66c4.24,13.47,8.4,18.25,10.66,18.25h.33l0,0,0,0,.06,0,0,0,.06-.06.06-.06.11-.12,0-.05.13-.19.05-.07.12-.2,0,0a.25.25,0,0,0,0-.07,7.42,7.42,0,0,0,.38-.8,11.14,11.14,0,0,0,.74-5c-.09-1.08-.13-2.18-.13-3.26,0-11.8,5.19-20.16,10.08-22a2.44,2.44,0,0,1,1.75,4.55c-1.85.72-6.94,6.19-6.94,17.49,0,1,0,1.93.11,2.89A16,16,0,0,1,59.79,115a12.53,12.53,0,0,1-.6,1.28l-.07.14-.08.13c-.07.12-.14.24-.22.35v0l-.09.14a5.23,5.23,0,0,1-.39.53l-.08.1a4.51,4.51,0,0,1-.33.38l-.15.15-.31.29-.19.16-.35.25-.19.13-.42.24-.13.06a3.71,3.71,0,0,1-.61.25l-.17,0a3.34,3.34,0,0,1-.4.1l-.14,0-.19,0-.35,0H54Zm.73-.06h0Zm3.53-2.12,0,0Zm-3.8-.31h0Zm4.69-1v0Zm-5.28-1.36h0Zm.18,0Z"/><path class="cls-2" d="M102.15,79.52a2.48,2.48,0,0,1-.54-.06,2.45,2.45,0,0,1-1.85-2.92,137.18,137.18,0,0,0,3.61-21.82v-.13c0-.08,0-.17,0-.25l0-.22c0-.17,0-.33.07-.5l.09-.66c0-.22.06-.44.08-.66l0-.17c0-.12,0-.24.05-.36,0-.39.08-.77.11-1.15l0-.35c0-.3,0-.59.08-.88l0-.39c0-.29,0-.58,0-.88l0-.31c0-.82,0-1.62,0-2.39v-.14l0-1a.37.37,0,0,1,0-.11V44c0-1,0-2.05,0-3.06,0-8-4.43-16.08-14.32-16.08h-.25l-.18,0a20.42,20.42,0,0,0-5.93.3l-.12,0h-.13c-4.32.23-9.07,2.54-11.35,3.66a8.46,8.46,0,0,1-2.13.87l-.42.08-.43-.08a8.77,8.77,0,0,1-2.13-.87c-2.28-1.12-7-3.43-11.35-3.66h-.13l-.12,0a20.36,20.36,0,0,0-5.92-.3l-.19,0h-.24c-4.8,0-8.38,1.16-10.66,3.45C36,30.37,35,33.49,35,37.55a2.44,2.44,0,1,1-4.88,0c0-5.4,1.53-9.68,4.57-12.73,3.2-3.23,7.92-4.87,14-4.89a24.56,24.56,0,0,1,7.11.31c5.27.31,10.55,2.89,13.1,4.14l.42.2.41-.2c2.55-1.25,7.84-3.83,13.11-4.14a24.47,24.47,0,0,1,7.1-.31,17.84,17.84,0,0,1,14.44,6.76A22.85,22.85,0,0,1,109,40.89c0,1,0,2.09,0,3.13l0,1.17v.16c0,.86,0,1.75,0,2.66l0,.35c0,.32,0,.64-.05,1l0,.42c0,.32,0,.64-.08,1v.11c0,.09,0,.18,0,.27,0,.41-.08.82-.13,1.24,0,.13,0,.26,0,.4l0,.16-.09.71-.09.71c0,.17,0,.35-.08.53l0,.18a1.87,1.87,0,0,0,0,.25,141.37,141.37,0,0,1-3.69,22.35A2.45,2.45,0,0,1,102.15,79.52Z"/><path class="cls-1" d="M84.53,119.8h-.3l-.35,0-.2,0-.15,0-.39-.1-.16,0a3.51,3.51,0,0,1-.61-.24l-.13-.06-.43-.25-.18-.11-.34-.26-.19-.15-.31-.29-.15-.16a4.17,4.17,0,0,1-.34-.38l-.08-.1c-.12-.15-.25-.32-.38-.51l-.1-.16v0c-.07-.1-.15-.22-.22-.34l-.07-.12a1,1,0,0,1-.07-.15,11.56,11.56,0,0,1-.61-1.28c-.94-2.3-1.77-8.56-1.77-9.82,0-4.44-3.14-10.58-8.41-16.44s-10.24-8.79-11.92-8.89a2.44,2.44,0,1,1,.3-4.87c4.55.27,11.06,5.82,15.26,10.49,2.9,3.24,9.65,11.63,9.65,19.71a44.47,44.47,0,0,0,1.41,8,8.68,8.68,0,0,0,.39.81l0,.06,0,0,.12.19.06.1.12.17.06.06.09.11,0,0a.6.6,0,0,1,.08.08l0,0,0,0,.05,0,0,0h.31c4.71,0,8.82-8.08,12.59-24.71a2.44,2.44,0,1,1,4.76,1.08c-2.14,9.43-4.4,16.22-6.91,20.73-2.87,5.16-6.37,7.77-10.4,7.78h-.28Zm-1.08-.12h0Zm-3.17-2.05h0Zm-.9-1.36v0Zm5.2-1.31h0Zm.12,0h0Zm-.21,0Zm-.09,0h0Z"/><path class="cls-1" d="M118.12,89.46l-.24,0c-.77-.07-19.07-2-42.81-12.19A170.45,170.45,0,0,1,36.73,54.51,158.69,158.69,0,0,1,.37,13.94a2.44,2.44,0,0,1,4.14-2.59C25.84,45.44,55.61,63.53,76.83,72.7c23.08,10,41.34,11.87,41.53,11.88a2.45,2.45,0,0,1-.24,4.88Z"/><path class="cls-2" d="M23.19,29.21a2.51,2.51,0,0,1-1.48-.5C11.43,20.87,6.19,9.24,6,8.74a2.44,2.44,0,1,1,4.46-2h0c.05.11,5,11,14.24,18.06a2.44,2.44,0,0,1-1.48,4.39Z"/><path class="cls-2" d="M28.55,23.9a2.47,2.47,0,0,1-1.48-.5c-10.29-7.84-15.53-19.48-15.75-20a2.44,2.44,0,0,1,4.47-2h0c0,.11,5,11,14.24,18.06a2.45,2.45,0,0,1-1.48,4.39Z"/><text class="cls-3" transform="translate(130.42 68.96)"><tspan xml:space="preserve"> CONSU</tspan><tspan class="cls-4" x="67.5" y="0">L</tspan><tspan class="cls-5" x="76.01" y="0">T</tspan><tspan x="85.62" y="0">ORIO </tspan><tspan x="0" y="26.4">DIENTE BLANCO</tspan></text></g></g></svg>